# xmcd
#
# Track frame offsets:
#	182
#	20725
#	77485
#	106015
#	124285
#
# Disc length: 1994 seconds
# Revision: 0
# Processed by: cddbd v1.5.2PL0 Copyright (c) Steve Scherf et al.
# Submitted via: dBpowerAMP V12.0
#
DISCID=3407c805
DTITLE=The S.O.U.L. S.Y.S.T.E.M. introducing Michelle Visage - It's Gonna Be A Lovely Day!
DYEAR=1993
DGENRE=House
TTITLE0=It's Gonna Be A Lovely Day! [The Radio Mix]
TTITLE1=It's Gonna Be A Lovely Day! [The Palladium House Anthem I]
TTITLE2=It's Gonna Be A Lovely Day! [The Dub House Mix III]
TTITLE3=It's Gonna Be A Lovely Day! [Movin’ The Beats]
TTITLE4=It's Gonna Be A Lovely Day! [The Easy Listening Sax Instrumental]
EXTD=
EXTT0=
EXTT1=
EXTT2=
EXTT3=
EXTT4=
PLAYORDER=
